<svg width="225" height="38" viewBox="0 0 225 38" fill="none" xmlns="http://www.w3.org/2000/svg">
<path d="M16.5979 5.91074C17.1966 4.06812 19.8034 4.06812 20.4021 5.91074L22.2045 11.4579C22.4722 12.2819 23.2401 12.8398 24.1066 12.8398H29.9392C31.8766 12.8398 32.6822 15.3191 31.1147 16.4579L26.3961 19.8862C25.6951 20.3955 25.4018 21.2982 25.6695 22.1222L27.4719 27.6694C28.0706 29.512 25.9617 31.0442 24.3942 29.9054L19.6756 26.4771C18.9746 25.9678 18.0254 25.9678 17.3244 26.4771L12.6058 29.9054C11.0383 31.0442 8.92938 29.512 9.52809 27.6694L11.3305 22.1222C11.5982 21.2982 11.3049 20.3955 10.6039 19.8862L5.88525 16.4579C4.31782 15.3191 5.12337 12.8398 7.06082 12.8398H12.8934C13.7599 12.8398 14.5278 12.2819 14.7955 11.4579L16.5979 5.91074Z" fill="#252324"/>
<path d="M63.5979 5.91074C64.1966 4.06812 66.8034 4.06812 67.4021 5.91074L69.2045 11.4579C69.4722 12.2819 70.2401 12.8398 71.1066 12.8398H76.9392C78.8766 12.8398 79.6822 15.3191 78.1147 16.4579L73.3961 19.8862C72.6951 20.3955 72.4018 21.2982 72.6695 22.1222L74.4719 27.6694C75.0706 29.512 72.9617 31.0442 71.3942 29.9054L66.6756 26.4771C65.9746 25.9678 65.0254 25.9678 64.3244 26.4771L59.6058 29.9054C58.0383 31.0442 55.9294 29.512 56.5281 27.6694L58.3305 22.1222C58.5982 21.2982 58.3049 20.3955 57.6039 19.8862L52.8853 16.4579C51.3178 15.3191 52.1234 12.8398 54.0608 12.8398H59.8934C60.7599 12.8398 61.5278 12.2819 61.7955 11.4579L63.5979 5.91074Z" fill="#252324"/>
<path d="M110.598 5.91074C111.197 4.06812 113.803 4.06812 114.402 5.91074L116.204 11.4579C116.472 12.2819 117.24 12.8398 118.107 12.8398H123.939C125.877 12.8398 126.682 15.3191 125.115 16.4579L120.396 19.8862C119.695 20.3955 119.402 21.2982 119.67 22.1222L121.472 27.6694C122.071 29.512 119.962 31.0442 118.394 29.9054L113.676 26.4771C112.975 25.9678 112.025 25.9678 111.324 26.4771L106.606 29.9054C105.038 31.0442 102.929 29.512 103.528 27.6694L105.33 22.1222C105.598 21.2982 105.305 20.3955 104.604 19.8862L99.8853 16.4579C98.3178 15.3191 99.1234 12.8398 101.061 12.8398H106.893C107.76 12.8398 108.528 12.2819 108.796 11.4579L110.598 5.91074Z" fill="#252324"/>
<path d="M157.598 5.91074C158.197 4.06812 160.803 4.06812 161.402 5.91074L163.204 11.4579C163.472 12.2819 164.24 12.8398 165.107 12.8398H170.939C172.877 12.8398 173.682 15.3191 172.115 16.4579L167.396 19.8862C166.695 20.3955 166.402 21.2982 166.67 22.1222L168.472 27.6694C169.071 29.512 166.962 31.0442 165.394 29.9054L160.676 26.4771C159.975 25.9678 159.025 25.9678 158.324 26.4771L153.606 29.9054C152.038 31.0442 149.929 29.512 150.528 27.6694L152.33 22.1222C152.598 21.2982 152.305 20.3955 151.604 19.8862L146.885 16.4579C145.318 15.3191 146.123 12.8398 148.061 12.8398H153.893C154.76 12.8398 155.528 12.2819 155.796 11.4579L157.598 5.91074Z" fill="#252324"/>
<path d="M205.073 6.06543C205.522 4.68346 207.478 4.68346 207.927 6.06543L209.729 11.6123C210.063 12.6423 211.023 13.3398 212.106 13.3398H217.939C219.392 13.3401 219.997 15.1996 218.821 16.0537L214.103 19.4814C213.226 20.118 212.86 21.2464 213.194 22.2764L214.996 27.8242C215.445 29.206 213.864 30.3547 212.688 29.501L207.97 26.0723C207.094 25.4357 205.906 25.4357 205.03 26.0723L200.312 29.501C199.136 30.3547 197.555 29.206 198.004 27.8242L199.806 22.2764C200.14 21.2464 199.774 20.118 198.897 19.4814L194.179 16.0537C193.003 15.1996 193.608 13.3401 195.061 13.3398H200.894C201.977 13.3398 202.937 12.6423 203.271 11.6123L205.073 6.06543Z" stroke="black"/>
</svg>
