<svg width="139" height="42" viewBox="0 0 139 42" fill="none" xmlns="http://www.w3.org/2000/svg">
<path d="M6.72434 9.08607V15.3835H0.800517V8.65913C0.800517 6.34653 1.38756 4.47866 2.56165 3.05552C3.73574 1.63237 5.4613 0.920804 7.73833 0.920804H8.96579C11.563 0.920804 13.4309 1.50785 14.5694 2.68194C15.7079 3.85603 16.2772 5.61717 16.2772 7.96535V14.583C16.2772 17.2869 15.281 19.0481 13.2886 19.8664C15.6012 20.5779 16.7575 22.517 16.7575 25.6835V34.1689C16.7575 36.2325 16.1704 37.9758 14.9963 39.399C13.8223 40.7865 11.99 41.4803 9.49946 41.4803H7.89843C5.69256 41.4803 3.94921 40.7865 2.66839 39.399C1.42314 38.0114 0.800517 36.4282 0.800517 34.6492V25.9503H6.72434V33.4751C6.72434 34.8983 7.38254 35.6099 8.69895 35.6099C9.97977 35.6099 10.6202 34.8983 10.6202 33.4751V25.4166C10.6202 24.1358 9.99756 23.4954 8.75231 23.4954H6.03056V17.4648H8.75231C9.67736 17.4648 10.1399 16.5042 10.1399 14.583V9.08607C10.1399 7.48504 9.57062 6.68453 8.43211 6.68453C7.2936 6.68453 6.72434 7.48504 6.72434 9.08607ZM28.8774 41L28.0769 33.5285H23.6473L22.9002 41H17.51L22.3665 1.29438H29.5178L34.6945 41H28.8774ZM25.8354 12.9286L24.2878 27.6047H27.4365L25.8354 12.9286ZM46.5638 41V7.0581H43.0415C43.0415 21.2539 42.8636 30.4865 42.5078 34.756C42.3655 36.8907 41.8141 38.4739 40.8534 39.5057C39.9284 40.5019 38.3807 41 36.2104 41H34.7161V34.8627H35.1431C35.8191 34.8627 36.2816 34.667 36.5307 34.2757C36.7797 33.8843 36.9398 33.1905 37.011 32.1943C37.26 29.8106 37.3845 19.5106 37.3845 1.29438H52.5944V41H46.5638ZM71.2906 9.99333V32.141C71.2906 38.3672 68.7289 41.4803 63.6056 41.4803H62.5916C57.3972 41.4803 54.7999 38.3672 54.7999 32.141V10.0467C54.7999 3.96277 57.3794 0.920804 62.5383 0.920804H63.5523C66.3274 0.920804 68.302 1.70353 69.4761 3.26899C70.6857 4.83444 71.2906 7.07589 71.2906 9.99333ZM65.1533 32.5679V9.72649C65.1533 7.69851 64.4595 6.68453 63.0719 6.68453C61.6488 6.68453 60.9372 7.69851 60.9372 9.72649V32.5679C60.9372 34.5959 61.6666 35.6099 63.1253 35.6099C64.4773 35.6099 65.1533 34.5959 65.1533 32.5679ZM73.2506 41V1.29438H85.3651V7.0581H79.2812V41H73.2506Z" fill="white"/>
<path d="M86.8531 41V1.29438H102.597V41H96.5661V7.0581H92.8837V41H86.8531ZM114.493 24.5094H110.971V41H104.94V1.29438H114.493C116.663 1.29438 118.229 1.81027 119.189 2.84204C120.186 3.83824 120.684 5.51043 120.684 7.85861V17.2513C120.684 22.09 118.62 24.5094 114.493 24.5094ZM110.971 6.68453V18.799H112.518C113.372 18.799 113.924 18.5677 114.173 18.1052C114.457 17.6071 114.6 16.8778 114.6 15.9171V9.40628C114.6 8.51682 114.457 7.84082 114.173 7.3783C113.888 6.91578 113.337 6.68453 112.518 6.68453H110.971ZM138.834 9.99333V32.141C138.834 38.3672 136.273 41.4803 131.149 41.4803H130.135C124.941 41.4803 122.344 38.3672 122.344 32.141V10.0467C122.344 3.96277 124.923 0.920804 130.082 0.920804H131.096C133.871 0.920804 135.846 1.70353 137.02 3.26899C138.229 4.83444 138.834 7.07589 138.834 9.99333ZM132.697 32.5679V9.72649C132.697 7.69851 132.003 6.68453 130.616 6.68453C129.192 6.68453 128.481 7.69851 128.481 9.72649V32.5679C128.481 34.5959 129.21 35.6099 130.669 35.6099C132.021 35.6099 132.697 34.5959 132.697 32.5679Z" fill="#2F90FF"/>
</svg>
