<svg width="48" height="48" viewBox="0 0 48 48" fill="none" xmlns="http://www.w3.org/2000/svg">
<g clip-path="url(#clip0_2_256)">
<path d="M10.7727 29.6262L8.79248 27.646C9.75138 26.6871 10.2795 25.4121 10.2795 24.056C10.2795 22.6999 9.75138 21.425 8.79248 20.466L10.7727 18.4858C12.2605 19.9736 13.08 21.9518 13.08 24.056C13.08 26.1602 12.2605 28.1384 10.7727 29.6262ZM15.3528 34.2063L13.3725 32.226C17.8775 27.721 17.8775 20.391 13.3725 15.8859L15.3528 13.9057C20.9496 19.5026 20.9496 28.6094 15.3528 34.2063Z" fill="white"/>
<path d="M19.9326 38.7864L17.9524 36.8061C24.9828 29.7757 24.9828 18.3363 17.9524 11.3059L19.9326 9.32568C23.8673 13.2603 26.0341 18.4916 26.0341 24.056C26.0341 29.6205 23.8673 34.8517 19.9326 38.7864Z" fill="white"/>
<path d="M24.5133 43.3665L22.5331 41.3863C27.1621 36.7572 29.7115 30.6025 29.7115 24.0561C29.7115 17.5097 27.1621 11.3549 22.5331 6.72594L24.5133 4.7457C29.6713 9.90369 32.512 16.7616 32.512 24.0561C32.512 31.3506 29.6713 38.2085 24.5133 43.3665Z" fill="white"/>
<path d="M29.093 47.9466L27.1128 45.9663C32.9652 40.1139 36.1883 32.3326 36.1883 24.0561C36.1883 15.7795 32.9652 7.99829 27.1128 2.14587L29.093 0.165527C32.3178 3.39023 34.8149 7.15095 36.5148 11.343C38.1564 15.3913 38.9889 19.6686 38.9889 24.0561C38.9889 28.4436 38.1564 32.7209 36.5148 36.7692C34.8149 40.9611 32.3178 44.7218 29.093 47.9466Z" fill="white"/>
</g>
<defs>
<clipPath id="clip0_2_256">
<rect width="47.781" height="47.781" fill="white" transform="translate(0 0.165558)"/>
</clipPath>
</defs>
</svg>
