<svg width="55" height="55" viewBox="0 0 55 55" fill="none" xmlns="http://www.w3.org/2000/svg">
<g clip-path="url(#clip0_2_221)">
<path d="M27.5 55C42.6915 55 55 42.6915 55 27.5C55 12.3085 42.6915 0 27.5 0C12.3085 0 0 12.3085 0 27.5C0 42.6915 12.3085 55 27.5 55ZM12.5835 26.9042L39.0981 16.681C40.3288 16.2365 41.4035 16.9813 41.0048 18.8421L41.0071 18.8398L36.4925 40.1088C36.1579 41.6167 35.2619 41.9833 34.0083 41.2729L27.1333 36.206L23.8173 39.4006C23.4506 39.7673 23.1413 40.0767 22.4308 40.0767L22.919 33.0802L35.6606 21.5692C36.2152 21.081 35.5369 20.806 34.8058 21.2919L19.0598 31.2056L12.2719 29.0881C10.7983 28.6206 10.7663 27.6146 12.5835 26.9042Z" fill="white"/>
</g>
<defs>
<clipPath id="clip0_2_221">
<rect width="55" height="55" fill="white"/>
</clipPath>
</defs>
</svg>
