<svg width="55" height="55" viewBox="0 0 55 55" fill="none" xmlns="http://www.w3.org/2000/svg">
<g clip-path="url(#clip0_2_227)">
<path d="M27.5069 0H27.4931C12.3303 0 0 12.3337 0 27.5C0 33.5156 1.93875 39.0913 5.23531 43.6184L1.80813 53.8347L12.3784 50.4556C16.7269 53.3363 21.9141 55 27.5069 55C42.6697 55 55 42.6628 55 27.5C55 12.3372 42.6697 0 27.5069 0ZM43.5084 38.8334C42.845 40.7069 40.2119 42.2606 38.1116 42.7144C36.6747 43.0203 34.7978 43.2644 28.4797 40.645C20.3981 37.2969 15.1938 29.0847 14.7881 28.5519C14.3997 28.0191 11.5225 24.2034 11.5225 20.2572C11.5225 16.3109 13.5266 14.3894 14.3344 13.5644C14.9978 12.8872 16.0944 12.5778 17.1462 12.5778C17.4866 12.5778 17.7925 12.595 18.0675 12.6088C18.8753 12.6431 19.2809 12.6913 19.8137 13.9666C20.4772 15.565 22.0928 19.5113 22.2853 19.9169C22.4812 20.3225 22.6772 20.8725 22.4022 21.4053C22.1444 21.9553 21.9175 22.1994 21.5119 22.6669C21.1062 23.1344 20.7212 23.4919 20.3156 23.9937C19.9444 24.4303 19.525 24.8978 19.9925 25.7056C20.46 26.4963 22.0756 29.1328 24.4544 31.2503C27.5241 33.9831 30.0128 34.8563 30.9031 35.2275C31.5666 35.5025 32.3572 35.4372 32.8419 34.9216C33.4572 34.2581 34.2169 33.1581 34.9903 32.0753C35.5403 31.2984 36.2347 31.2022 36.9634 31.4772C37.7059 31.735 41.635 33.6772 42.4428 34.0794C43.2506 34.485 43.7834 34.6775 43.9794 35.0178C44.1719 35.3581 44.1719 36.9566 43.5084 38.8334Z" fill="white"/>
</g>
<defs>
<clipPath id="clip0_2_227">
<rect width="55" height="55" fill="white"/>
</clipPath>
</defs>
</svg>
